inDegrees=yes
name=ik_Xsens_quaternion
DataType=double
version=3
OpenSimVersion=4.4-2022-07-23-0e9fedc
endheader
time	pelvis_tilt	pelvis_list	pelvis_rotation	pelvis_tx	pelvis_ty	pelvis_tz	hip_flexion_r	hip_adduction_r	hip_rotation_r	knee_angle_r	knee_angle_r_beta	ankle_angle_r	subtalar_angle_r	mtp_angle_r	hip_flexion_l	hip_adduction_l	hip_rotation_l	knee_angle_l	knee_angle_l_beta	ankle_angle_l	subtalar_angle_l	mtp_angle_l	lumbar_extension	lumbar_bending	lumbar_rotation	arm_flex_r	arm_add_r	arm_rot_r	elbow_flex_r	pro_sup_r	wrist_flex_r	wrist_dev_r	arm_flex_l	arm_add_l	arm_rot_l	elbow_flex_l	pro_sup_l	wrist_flex_l	wrist_dev_l
28.35	0	0	0	0	0.93	0	0	0	0	0	0	0	0	0	0	0	0	0	0	0	0	0	0	0	0	0	0	0	0	0	0	0	-14.79747327105003	7.238232099270843	-10.29680015797253	0.01795965347216535	45.00017287588518	0	0
28.36666666666667	0	0	-1.077613842297402e-34	0	0.93	0	0	0	0	0	-5.473822126268817e-47	0	0	0	0	0	0	0	-5.473822126268817e-47	0	0	0	0	0	-1.077613842297402e-34	0	0	0	0	0	0	0	-13.60106702263121	7.00714005609851	-10.93001702215361	0.01755409946110665	45.00017105629806	0	0
28.38333333333333	9.62354587595161e-25	-6.501355275728161e-19	2.550362645414832e-26	9.064715361418332e-20	0.93	2.765537073165763e-18	0	-1.084815702477526e-16	0	0	-6.475696787845396e-17	2.137108038918179e-14	-1.664792262186715e-14	2.24486483523779e-15	-1.529162562622627e-16	0	-5.10873059587629e-15	0	-6.475684917851081e-17	6.99995913394254e-14	-1.451496922195769e-14	6.162518565041622e-17	-1.572006602893484e-25	4.926870497298306e-15	2.174438880714095e-25	1.596482465369942e-23	-7.109338173180994e-14	2.510692583340247e-14	0	0	-3.192068558695834e-16	-2.230669416052758e-15	-12.38167185287143	6.837374799459802	-11.50484268392144	0.01721027135825119	45.0001692197841	2.502746994280227e-15	3.046272682698349e-15
28.4	0	0	0	0	0.93	0	0	0	0	0	0	0	0	0	0	0	0	0	2.736911063134408e-48	0	0	0	0	0	0	0	0	0	0	0	0	0	-11.18792960881632	6.760449226365634	-11.9927900048235	0.01701717657881376	45.00016754617937	0	0
28.41666666666667	0	0	0	0	0.93	0	0	0	0	0	-5.877471754111438e-39	0	0	0	0	0	0	4.705944345779822e-37	0	0	0	0	0	0	0	0	0	0	1.052357267868557e-37	6.234535783840677e-39	0	0	-10.02063356012619	6.713328722681945	-12.44455879143998	0.01686870502849239	45.00016589673701	0	0
28.43333333333333	0	0	0	0	0.93	0	0	0	0	1.568134528202648e-45	8.995857822992807e-48	0	0	0	0	0	0	1.568134528202648e-45	8.995857822992807e-48	0	0	0	0	0	0	0	0	0	1.568134528202648e-45	1.254507622562118e-45	0	0	-8.870823008644663	6.647145061531122	-12.92801522716089	0.01657571282811972	45.00016428324391	0	0
28.45	0	0	0	0	0.93	0	0	0	0	0	0	0	0	0	0	0	0	0	0	0	0	0	0	0	0	0	0	0	0	0	0	0	-7.690978287913211	6.542460345763341	-13.51551478680739	0.01616325943226748	45.00016255914864	0	0
28.46666666666667	-3.394551240178001e-34	0	0	0	0.93	0	0	0	0	0	2.938735877055719e-39	-4.310455369189608e-35	0	0	0	0	0	1.004563111734642e-37	0	-2.155227684594804e-35	0	0	0	0	0	0	0	0	0	1.042712107290645e-37	0	0	-6.501031945513433	6.430865712200635	-14.13474082720379	0.01574574231997117	45.00016085575884	0	0
28.48333333333333	0	0	0	0	0.93	0	0	0	0	0	0	0	0	0	0	0	0	0	0	0	0	0	0	0	0	0	0	0	0	0	0	0	-5.318605895405899	6.32403136812137	-14.70928848414331	0.01547886239987604	45.00015929642971	0	0
28.5	-1.746466195012179e-25	4.391357018124924e-16	7.047334604717883e-25	4.865585114139125e-20	0.93	-9.021532148638608e-19	0	-2.760818233764331e-17	0	0	-2.131617175354206e-16	-2.588544690060734e-14	-1.719732419717409e-18	-1.014106999316593e-18	2.892155512970927e-15	8.718259193764173e-45	2.768736604701062e-14	0	-2.131591043192609e-16	-9.237595693641253e-15	1.83392390457533e-18	4.848159696343782e-19	-6.906315595182738e-26	2.419440657724254e-15	6.906315595182738e-25	2.604114321899303e-20	6.710672826911943e-15	-3.324839340571977e-15	0	0	-4.607801843328986e-17	-1.483775490838223e-14	-4.092920242138103	6.248118145971223	-15.19147408254125	0.01530460561965038	45.00015771443147	4.031753073071842e-15	-8.855053303477763e-15
28.51666666666667	-3.301543104017703e-27	7.739299715954708e-18	9.355958587212534e-27	-7.352894173689533e-20	0.93	9.112384009325232e-20	9.177029941746042e-35	4.056655978604302e-21	0	7.419099040068492e-15	1.293401218039449e-16	2.000586541047501e-17	8.701522563106933e-22	6.759560135219544e-23	6.021326830422305e-29	-2.305759768664149e-26	-9.193179923108535e-18	7.419353608686382e-15	1.302997403367724e-16	1.381548410743834e-17	4.399912005590746e-22	-7.382155146699507e-18	5.580973961309705e-17	-1.672850488585205e-17	-2.454571945451438e-17	-4.641922805795925e-18	1.565308218129322e-17	-1.33167120526216e-16	7.419355143706295e-15	7.419355278099326e-15	1.59790111037365e-19	2.41483648075911e-20	-2.796248619321908	6.189503912313143	-15.61564357157888	0.01518036539650009	45.00015637432072	-6.765478374041638e-19	2.036056820730403e-21
28.53333333333333	0	0	0	0	0.93	0	0	0	0	1.176100896151986e-46	0	0	0	0	0	0	0	0	0	0	0	0	0	0	0	0	0	0	0	0	0	0	-1.485571355821358	6.122849578831953	-15.98836325493044	0.01513259248953325	45.00015504399026	0	0
28.55	0	0	0	0	0.93	0	0	0	0	0	0	0	0	0	0	0	0	0	0	0	0	0	0	0	0	0	0	0	0	0	0	0	-0.1795159165861341	6.040267962753537	-16.30295021069828	0.01522049031633591	45.00015373236297	0	0
28.56666666666667	0	0	0	0	0.93	0	0	0	0	0	0	0	0	0	0	0	0	0	0	0	0	0	0	0	0	0	0	0	0	0	0	0	1.149454673370565	5.967150884041518	-16.50112310968935	0.01535592721825787	45.00015209777013	0	0
28.58333333333333	0	0	0	0	0.93	0	0	0	0	0	0	0	0	0	0	6.726601466386436e-36	0	0	0	0	0	0	0	0	0	0	0	0	0	0	0	0	2.505616600322328	5.921597096279655	-16.61411055227404	0.01545016583321029	45.00015045466073	0	0
